<?xml version="1.0" encoding="utf-8"?>
<!-- Generator: Adobe Illustrator 19.2.1, SVG Export Plug-In . SVG Version: 6.00 Build 0)  -->
<!DOCTYPE svg PUBLIC "-//W3C//DTD SVG 1.1//EN" "http://www.w3.org/Graphics/SVG/1.1/DTD/svg11.dtd">
<svg version="1.1" id="Objects" xmlns="http://www.w3.org/2000/svg" xmlns:xlink="http://www.w3.org/1999/xlink" x="0px" y="0px"
	 width="98.3px" height="101.8px" viewBox="0 0 98.3 101.8" style="enable-background:new 0 0 98.3 101.8;" xml:space="preserve">
<style type="text/css">
	.st0{fill:#424242;}
</style>
<path class="st0" d="M50.7,0.2c-1-0.3-2.1-0.3-3.1,0L3.6,14C1.4,14.7,0,16.7,0,19c1.1,57.3,27.7,73.1,46.9,82.3
	c1.4,0.7,3.1,0.7,4.5,0c19.2-9.3,45.8-25,46.9-82.3c0-2.3-1.4-4.3-3.6-5L50.7,0.2z M68.3,48.6c0,2.1-1.7,3.8-3.8,3.8h-9.4v9.3
	c0,2.1-1.7,3.8-3.8,3.8h-4.4c-2.1,0-3.8-1.7-3.8-3.8v-9.3h-9.3c-2.1,0-3.8-1.7-3.8-3.8V44c0-2.1,1.7-3.8,3.8-3.8h9.3v-9.3
	c0-2.1,1.7-3.8,3.8-3.8h4.4c2.1,0,3.8,1.7,3.8,3.8v9.3h9.4c2.1,0,3.8,1.7,3.8,3.8V48.6z"/>
</svg>
